# xmcd
#
# Track frame offsets: 
#        150
#        11056
#        22424
#        33340
#        44111
#        56037
#        64753
#        73624
#        84272
#        93543
#        104292
#        117431
#        126302
#        136221
#        148742
#        162913
#        178241
#        190232
#        202035
#        212041
#
# Disc length: 2986 seconds
#
# Revision: 1
# Processed by: cddbd v1.5.2PL0 Copyright (c) Steve Scherf et al.
# Submitted via: ExactAudioCopy v1.0b3
#
DISCID=380ba814
DTITLE=Merle Travis - The Guitar Picker CD3 (1951-53)
DYEAR=1900
DGENRE=Country
TTITLE0=Done Rovin'
TTITLE1=Faithful Fool
TTITLE2=Let's Settle Down
TTITLE3=Lost John Boogie
TTITLE4=A Too Fast Past
TTITLE5=I'll See You In My Dreams
TTITLE6=Cannonball Rag
TTITLE7=Ain't That A Cryin' Shame
TTITLE8=Kinfolks In Carolina
TTITLE9=Rainy Day Feelin'
TTITLE10=Green Cheese
TTITLE11=I'll Have Myself A Ball
TTITLE12=Love Must Be Ketchin'
TTITLE13=Lousiana Boogie
TTITLE14=Dance Of The Golden Rod
TTITLE15=Re-Enlistment Blues
TTITLE16=Knee Deep In Trouble
TTITLE17=Bayou Baby
TTITLE18=Shut Up And Drink Your Beer
TTITLE19=Gambler's Guitar
EXTD=
EXTT0=
EXTT1=
EXTT2=
EXTT3=
EXTT4=
EXTT5=
EXTT6=
EXTT7=
EXTT8=
EXTT9=
EXTT10=
EXTT11=
EXTT12=
EXTT13=
EXTT14=
EXTT15=
EXTT16=
EXTT17=
EXTT18=
EXTT19=
PLAYORDER=
